<?xml version="1.0" encoding="utf-8"?>
<!-- Generator: Adobe Illustrator 24.3.0, SVG Export Plug-In . SVG Version: 6.00 Build 0)  -->
<svg version="1.1" id="Layer_1" xmlns="http://www.w3.org/2000/svg" xmlns:xlink="http://www.w3.org/1999/xlink" x="0px" y="0px"
	 viewBox="0 0 198 59" style="enable-background:new 0 0 198 59;" xml:space="preserve">
<style type="text/css">
	.st0{fill:#FFFFFF;}
</style>
<path class="st0" d="M30,0H3.2C1.4,0,0,1.4,0,3.1v15.8C0,20.6,1.4,22,3.2,22c4.2,0,7.6,3.4,7.6,7.5S7.3,37,3.2,37
	C1.4,37,0,38.4,0,40.1v15.8C0,57.6,1.4,59,3.2,59H30V0z"/>
<path class="st0" d="M115.8,17.4h-4.1v10.9H109V17.4h-4v-2.2h10.8V17.4z"/>
<path class="st0" d="M120.2,28.3h-2.7V15.2h2.7V28.3z"/>
<path class="st0" d="M133.2,23.9c-0.1,1.4-0.6,2.5-1.6,3.3c-0.9,0.8-2.2,1.2-3.7,1.2c-1.7,0-3-0.6-4-1.7c-1-1.1-1.5-2.7-1.5-4.7
	v-0.8c0-1.3,0.2-2.4,0.7-3.3c0.4-1,1.1-1.7,1.9-2.2c0.8-0.5,1.8-0.8,2.9-0.8c1.5,0,2.8,0.4,3.7,1.2c0.9,0.8,1.5,1.9,1.6,3.4h-2.7
	c-0.1-0.8-0.3-1.5-0.7-1.8c-0.4-0.4-1-0.6-1.9-0.6c-0.9,0-1.6,0.3-2,1c-0.4,0.6-0.7,1.6-0.7,3v1c0,1.4,0.2,2.5,0.6,3.1
	c0.4,0.7,1.1,1,2.1,1c0.8,0,1.5-0.2,1.9-0.6c0.4-0.4,0.7-1,0.7-1.8H133.2z"/>
<path class="st0" d="M139.1,23l-1.4,1.5v3.7H135V15.2h2.7v5.9l1.2-1.6l3.4-4.3h3.4l-4.7,5.8l4.8,7.3h-3.2L139.1,23z"/>
<path class="st0" d="M154.7,22.6h-5.2v3.5h6.1v2.2h-8.9V15.2h8.9v2.2h-6.1v3.1h5.2V22.6z"/>
<path class="st0" d="M167.4,17.4h-4.1v10.9h-2.7V17.4h-4v-2.2h10.8V17.4z"/>
<path class="st0" d="M171.9,28.3h-2.7V15.2h2.7V28.3z"/>
<path class="st0" d="M185.1,28.3h-2.7l-5.3-8.6v8.6h-2.7V15.2h2.7l5.3,8.6v-8.6h2.7V28.3z"/>
<path class="st0" d="M198,26.6c-0.5,0.6-1.2,1-2.1,1.4c-0.9,0.3-1.9,0.5-3,0.5c-1.1,0-2.2-0.2-3-0.7c-0.9-0.5-1.5-1.2-2-2.2
	c-0.5-0.9-0.7-2.1-0.7-3.3v-0.9c0-1.3,0.2-2.4,0.7-3.4c0.4-1,1.1-1.7,1.9-2.2c0.8-0.5,1.8-0.8,3-0.8c1.6,0,2.8,0.4,3.7,1.1
	c0.9,0.7,1.4,1.8,1.6,3.2h-2.7c-0.1-0.8-0.4-1.3-0.8-1.6c-0.4-0.3-1-0.5-1.7-0.5c-0.9,0-1.6,0.3-2.1,1c-0.5,0.7-0.7,1.7-0.7,3.1v0.8
	c0,1.4,0.3,2.4,0.8,3.1c0.5,0.7,1.3,1.1,2.3,1.1c1,0,1.8-0.2,2.2-0.6v-2.3h-2.5v-2h5.2V26.6z"/>
<path class="st0" d="M112.7,46.4c0-0.5-0.2-0.9-0.5-1.2c-0.4-0.3-1-0.6-2-0.9c-0.9-0.3-1.7-0.6-2.2-0.9c-1.5-0.8-2.3-1.9-2.3-3.3
	c0-0.7,0.2-1.3,0.6-1.9c0.4-0.6,1-1,1.7-1.3c0.8-0.3,1.6-0.5,2.5-0.5c0.9,0,1.8,0.2,2.5,0.5c0.7,0.3,1.3,0.8,1.7,1.4
	c0.4,0.6,0.6,1.3,0.6,2.1h-2.7c0-0.6-0.2-1.1-0.6-1.4c-0.4-0.3-0.9-0.5-1.6-0.5c-0.7,0-1.2,0.1-1.6,0.4c-0.4,0.3-0.6,0.6-0.6,1.1
	c0,0.4,0.2,0.8,0.6,1.1c0.4,0.3,1.1,0.6,1.9,0.8c1.6,0.5,2.7,1,3.4,1.7c0.7,0.7,1.1,1.5,1.1,2.6c0,1.1-0.4,2-1.3,2.7
	c-0.9,0.6-2,1-3.5,1c-1,0-1.9-0.2-2.8-0.5c-0.8-0.4-1.5-0.9-1.9-1.5c-0.4-0.6-0.7-1.4-0.7-2.2h2.7c0,1.4,0.9,2.2,2.6,2.2
	c0.6,0,1.2-0.1,1.5-0.4C112.5,47.2,112.7,46.8,112.7,46.4z"/>
<path class="st0" d="M121.8,42.6l2.8-5.9h3l-4.3,8.4v4.8h-2.8v-4.8l-4.3-8.4h3L121.8,42.6z"/>
<path class="st0" d="M135.5,46.4c0-0.5-0.2-0.9-0.5-1.2c-0.4-0.3-1-0.6-2-0.9c-0.9-0.3-1.7-0.6-2.2-0.9c-1.5-0.8-2.3-1.9-2.3-3.3
	c0-0.7,0.2-1.3,0.6-1.9c0.4-0.6,1-1,1.7-1.3c0.8-0.3,1.6-0.5,2.5-0.5c0.9,0,1.8,0.2,2.5,0.5c0.7,0.3,1.3,0.8,1.7,1.4
	c0.4,0.6,0.6,1.3,0.6,2.1h-2.7c0-0.6-0.2-1.1-0.6-1.4c-0.4-0.3-0.9-0.5-1.6-0.5c-0.7,0-1.2,0.1-1.6,0.4c-0.4,0.3-0.6,0.6-0.6,1.1
	c0,0.4,0.2,0.8,0.6,1.1c0.4,0.3,1.1,0.6,1.9,0.8c1.6,0.5,2.7,1,3.4,1.7c0.7,0.7,1.1,1.5,1.1,2.6c0,1.1-0.4,2-1.3,2.7
	c-0.9,0.6-2,1-3.5,1c-1,0-1.9-0.2-2.8-0.5c-0.8-0.4-1.5-0.9-1.9-1.5c-0.4-0.6-0.7-1.4-0.7-2.2h2.7c0,1.4,0.9,2.2,2.6,2.2
	c0.6,0,1.2-0.1,1.5-0.4C135.3,47.2,135.5,46.8,135.5,46.4z"/>
<path class="st0" d="M150,38.9H146v10.9h-2.7V38.9h-4v-2.2H150V38.9z"/>
<path class="st0" d="M159.6,44.1h-5.2v3.5h6.1v2.2h-8.9V36.7h8.9v2.2h-6.1V42h5.2V44.1z"/>
<path class="st0" d="M165.6,36.7l3.4,9.5l3.4-9.5h3.6v13.1h-2.7v-3.6l0.3-6.2l-3.6,9.8h-1.9l-3.6-9.8l0.3,6.2v3.6h-2.7V36.7H165.6z"
	/>
<path class="st0" d="M95.9,22c1.7,0,3.1-1.4,3.1-3.1V3.1C99,1.4,97.6,0,95.9,0H36v59h59.9c1.7,0,3.1-1.4,3.1-3.1V40.1
	c0-1.7-1.4-3.1-3.1-3.1c-4.1,0-7.5-3.4-7.5-7.5S91.8,22,95.9,22z M50.8,45.6H46V15.4h4.8V45.6z M68.4,25.6h-4.6v-3.5
	c0-1.9-0.8-2.8-2.4-2.8c-1.6,0-2.4,0.9-2.4,2.8v16.8c0,1.8,0.8,2.8,2.4,2.8c1.6,0,2.4-0.9,2.4-2.8v-4.6h4.6v4.3
	c0,2.4-0.6,4.2-1.8,5.5c-1.2,1.3-3,1.9-5.3,1.9c-2.3,0-4.1-0.6-5.3-1.9c-1.2-1.3-1.8-3.1-1.8-5.5V22.4c0-2.4,0.6-4.2,1.8-5.5
	c1.2-1.3,3-1.9,5.3-1.9c2.3,0,4.1,0.6,5.3,1.9c1.2,1.3,1.8,3.1,1.8,5.5V25.6z M79.9,45.6h-4.8V19.7H70v-4.3h15v4.3h-5.1V45.6z
	 M92,48v3h-7v3h-4v-4h3v-2H92z"/>
</svg>
