<svg width="50" height="50" viewBox="0 0 50 50" fill="none" xmlns="http://www.w3.org/2000/svg">
<path d="M50 25C50 11.1828 38.8187 0 25 0C11.1828 0 0 11.1813 0 25C0 38.6948 11.0878 50 25 50C38.855 50 50 38.7577 50 25ZM25 2.92969C37.1696 2.92969 47.0703 12.8304 47.0703 25C47.0703 29.4518 45.7462 33.7307 43.2907 37.355C33.4305 26.7487 16.5874 26.7296 6.70929 37.355C4.25377 33.7307 2.92969 29.4518 2.92969 25C2.92969 12.8304 12.8304 2.92969 25 2.92969ZM8.53653 39.6973C17.3035 29.8637 32.6988 29.866 41.4631 39.6973C32.6668 49.5384 17.3367 49.5415 8.53653 39.6973Z" fill="white"/>
<path d="M25 26.4648C29.8462 26.4648 33.7891 22.522 33.7891 17.6758V14.7461C33.7891 9.8999 29.8462 5.95703 25 5.95703C20.1538 5.95703 16.2109 9.8999 16.2109 14.7461V17.6758C16.2109 22.522 20.1538 26.4648 25 26.4648ZM19.1406 14.7461C19.1406 11.515 21.769 8.88672 25 8.88672C28.231 8.88672 30.8594 11.515 30.8594 14.7461V17.6758C30.8594 20.9068 28.231 23.5352 25 23.5352C21.769 23.5352 19.1406 20.9068 19.1406 17.6758V14.7461Z" fill="white"/>
</svg>
