<svg width="22.8" height="22.8" viewBox="0 0 28 28" fill="none" xmlns="http://www.w3.org/2000/svg">
<path fill-rule="evenodd" clip-rule="evenodd" d="M14 26C20.6274 26 26 20.6274 26 14C26 7.37258 20.6274 2 14 2C7.37258 2 2 7.37258 2 14C2 20.6274 7.37258 26 14 26ZM14 28C21.732 28 28 21.732 28 14C28 6.26801 21.732 0 14 0C6.26801 0 0 6.26801 0 14C0 21.732 6.26801 28 14 28Z" fill="#055F9D"/>
<path d="M14.3828 13.3281H19.5742V14.6406H14.3828V20.2891H12.9648V14.6406H7.87891V13.3281H12.9648V7.86719H14.3828V13.3281Z" fill="#055F9D"/>
</svg>
