<svg width="18" height="18" viewBox="0 0 18 18" fill="none" xmlns="http://www.w3.org/2000/svg">
<g clip-path="url(#clip0)">
<path d="M11.3391 2.8813L12.333 1.88745L14.0898 3.6443L17.0061 0.727844L18 1.72169L14.0898 5.63187L11.3391 2.8813ZM16.9236 4.78578C17.6201 6.07901 17.99 7.53223 17.99 9.04243C17.99 11.4451 17.0544 13.7039 15.3555 15.403C13.6566 17.1019 11.3976 18.0253 8.99506 18.0253C6.59235 18.0253 4.33356 17.1019 2.63452 15.403C0.935623 13.7039 0 11.4451 0 9.04243C0 6.63986 0.935623 4.38094 2.63452 2.68204C4.33356 0.983139 6.59235 0.0351562 8.99506 0.0351562C9.94633 0.0351562 10.875 0.194733 11.7554 0.477356L10.607 1.62584C10.0872 1.51295 9.54808 1.45294 8.99506 1.45294C4.81009 1.45294 1.40543 4.8576 1.40543 9.04243C1.40543 10.9569 2.11844 12.708 3.29219 14.0446C3.70061 12.2172 4.96706 10.7103 6.64522 9.97023C5.94456 9.33138 5.50415 8.41168 5.50415 7.39105C5.50415 5.46625 7.07011 3.90015 8.99506 3.90015C10.9199 3.90015 12.4858 5.46611 12.4858 7.39105C12.4858 8.41168 12.0455 9.33138 11.3449 9.97023C13.0229 10.7103 14.2895 12.2172 14.6978 14.0446C15.8717 12.7079 16.5845 10.9569 16.5845 9.04243C16.5845 7.89738 16.3291 6.81084 15.873 5.83635L16.9236 4.78578ZM8.99506 9.47639C10.1449 9.47639 11.0804 8.54091 11.0804 7.39105C11.0804 6.24106 10.1449 5.30557 8.99506 5.30557C7.84506 5.30557 6.90958 6.24106 6.90958 7.39105C6.90958 8.54091 7.84506 9.47639 8.99506 9.47639V9.47639ZM8.99506 16.6321C10.6499 16.6321 12.1825 16.0992 13.4311 15.1967C13.3657 12.8064 11.4009 10.8818 8.99506 10.8818C6.58919 10.8818 4.62428 12.8064 4.55905 15.1967C5.80765 16.0992 7.3401 16.6321 8.99506 16.6321Z" fill="white"/>
</g>
<defs>
<clipPath id="clip0">
<rect width="18" height="18" fill="white"/>
</clipPath>
</defs>
</svg>
