<svg width="25" height="12" viewBox="0 0 25 12" fill="none" xmlns="http://www.w3.org/2000/svg">
<path d="M24.0234 5.03226H3.34191L6.76789 1.65367C7.15016 1.27664 7.15163 0.663916 6.77116 0.285093C6.39069 -0.0937777 5.77233 -0.0951806 5.39005 0.281803L0.287323 5.31406C0.286981 5.31435 0.286737 5.31469 0.286444 5.31498C-0.0948545 5.69202 -0.0960752 6.30673 0.286346 6.68502C0.286688 6.68531 0.286932 6.68565 0.287225 6.68594L5.38996 11.7182C5.77218 12.0951 6.39054 12.0938 6.77106 11.7149C7.15153 11.3361 7.15006 10.7234 6.76779 10.3463L3.34191 6.96774H24.0234C24.5628 6.96774 25 6.53448 25 6C25 5.46552 24.5628 5.03226 24.0234 5.03226Z" fill="white"/>
</svg>
