<svg width="29" height="16" viewBox="0 0 29 16" fill="none" xmlns="http://www.w3.org/2000/svg">
<path d="M27.4537 7H11.7835C11.351 7 11 7.35104 11 7.78349C11 8.21601 11.351 8.56698 11.7835 8.56698H27.4537C27.8862 8.56698 28.2372 8.21594 28.2372 7.78349C28.2373 7.35098 27.8862 7 27.4537 7Z" fill="white"/>
<path fill-rule="evenodd" clip-rule="evenodd" d="M0.5 8.00004C0.5 7.43188 0.821004 6.91249 1.32918 6.6584L13.3292 0.658401C13.9477 0.349132 14.6975 0.502815 15.1445 1.03048C15.5915 1.55814 15.6199 2.32302 15.2131 2.8823L11.4911 8.00004L15.2131 13.1178C15.6199 13.6771 15.5915 14.4419 15.1445 14.9696C14.6975 15.4973 13.9477 15.651 13.3292 15.3417L1.32918 9.34168C0.821004 9.0876 0.5 8.5682 0.5 8.00004ZM9.63636 8.00004L14 2.00004L2 8.00004L14 14L9.63636 8.00004Z" fill="white"/>
</svg>
