<svg width="13" height="22" viewBox="0 0 13 22" fill="none" xmlns="http://www.w3.org/2000/svg">
<path d="M4.36848 11.0047L12.6467 2.77415C12.8746 2.54806 13 2.24579 13 1.92348C13 1.60099 12.8746 1.29889 12.6467 1.07246L11.9213 0.351642C11.6937 0.124846 11.3895 0 11.0653 0C10.7411 0 10.4372 0.124846 10.2095 0.351642L0.35298 10.1508C0.12432 10.3779 -0.000894709 10.6814 4.81992e-06 11.0041C-0.000894709 11.3282 0.12414 11.6314 0.35298 11.8587L10.2003 21.6484C10.4281 21.8752 10.7319 22 11.0563 22C11.3805 22 11.6843 21.8752 11.9123 21.6484L12.6375 20.9275C13.1094 20.4584 13.1094 19.6946 12.6375 19.2257L4.36848 11.0047Z" fill="white"/>
</svg>
