<svg width="18" height="18" viewBox="0 0 18 18" fill="none" xmlns="http://www.w3.org/2000/svg">
<path d="M17.25 8.25C16.836 8.25 16.5 8.586 16.5 9C16.5 13.1355 13.1355 16.5 9 16.5C4.8645 16.5 1.5 13.1355 1.5 9C1.5 4.8645 4.8645 1.5 9 1.5C11.0134 1.5 12.9034 2.28675 14.322 3.7155C14.6138 4.00912 15.0889 4.011 15.3825 3.71925C15.6765 3.4275 15.678 2.95238 15.3862 2.65838C13.6841 0.94425 11.4157 0 9 0C4.03725 0 0 4.03725 0 9C0 13.9628 4.03725 18 9 18C13.9624 18 18 13.9628 18 9C18 8.586 17.664 8.25 17.25 8.25Z" fill="white"/>
<path d="M10.0605 9.00003L11.7802 7.28028C12.0731 6.9874 12.0731 6.51265 11.7802 6.21978C11.4874 5.9269 11.0126 5.9269 10.7197 6.21978L9 7.93953L7.28025 6.21978C6.98775 5.9269 6.51225 5.9269 6.21975 6.21978C5.92687 6.51265 5.92687 6.9874 6.21975 7.28028L7.9395 9.00003L6.21975 10.7198C5.92687 11.0127 5.92687 11.4874 6.21975 11.7803C6.366 11.9269 6.558 12 6.75 12C6.942 12 7.134 11.9269 7.28025 11.7803L9 10.0605L10.7197 11.7803C10.8664 11.9269 11.058 12 11.25 12C11.442 12 11.6336 11.9269 11.7802 11.7803C12.0731 11.4874 12.0731 11.0127 11.7802 10.7198L10.0605 9.00003Z" fill="white"/>
</svg>
