<svg width="23" height="33" viewBox="0 0 23 33" fill="none" xmlns="http://www.w3.org/2000/svg">
<path d="M22.4773 17.7727H20.9091V9.40909C20.9091 4.22102 16.6881 0 11.5 0C6.31193 0 2.09091 4.22102 2.09091 9.40909V17.7727H0.522727C0.384091 17.7727 0.251134 17.8278 0.153103 17.9258C0.055073 18.0239 0 18.1568 0 18.2955V31.8864C0 32.025 0.055073 32.158 0.153103 32.256C0.251134 32.354 0.384091 32.4091 0.522727 32.4091H22.4773C22.6159 32.4091 22.7489 32.354 22.8469 32.256C22.9449 32.158 23 32.025 23 31.8864V18.2955C23 18.1568 22.9449 18.0239 22.8469 17.9258C22.7489 17.8278 22.6159 17.7727 22.4773 17.7727ZM3.13636 9.40909C3.13636 7.19092 4.01753 5.06359 5.58602 3.49511C7.1545 1.92662 9.28183 1.04545 11.5 1.04545C13.7182 1.04545 15.8455 1.92662 17.414 3.49511C18.9825 5.06359 19.8636 7.19092 19.8636 9.40909V17.7727H17.7727V9.40909C17.7727 7.74546 17.1119 6.14997 15.9355 4.9736C14.7591 3.79724 13.1636 3.13636 11.5 3.13636C9.83637 3.13636 8.24088 3.79724 7.06451 4.9736C5.88815 6.14997 5.22727 7.74546 5.22727 9.40909V17.7727H3.13636V9.40909ZM16.7273 9.40909V17.7727H6.27273V9.40909C6.27273 8.02273 6.82346 6.69316 7.80376 5.71285C8.78406 4.73255 10.1136 4.18182 11.5 4.18182C12.8864 4.18182 14.2159 4.73255 15.1962 5.71285C16.1765 6.69316 16.7273 8.02273 16.7273 9.40909ZM21.9545 31.3636H1.04545V18.8182H21.9545V31.3636Z" fill="url(#paint0_linear)"/>
<path d="M11.5 19.3409C10.3628 19.3409 9.25106 19.6781 8.30547 20.3099C7.35989 20.9418 6.6229 21.8398 6.1877 22.8905C5.75249 23.9411 5.63862 25.0973 5.86049 26.2127C6.08235 27.3281 6.62999 28.3526 7.43414 29.1568C8.23829 29.9609 9.26284 30.5085 10.3782 30.7304C11.4936 30.9523 12.6498 30.8384 13.7004 30.4032C14.7511 29.968 15.6491 29.231 16.281 28.2854C16.9128 27.3398 17.25 26.2281 17.25 25.0909C17.2483 23.5664 16.6419 22.1049 15.564 21.0269C14.486 19.949 13.0245 19.3426 11.5 19.3409ZM11.5 29.7954C10.5695 29.7954 9.65996 29.5195 8.8863 29.0026C8.11264 28.4856 7.50964 27.7509 7.15357 26.8912C6.79749 26.0316 6.70433 25.0857 6.88585 24.1731C7.06738 23.2605 7.51544 22.4222 8.17339 21.7643C8.83133 21.1063 9.6696 20.6583 10.5822 20.4767C11.4948 20.2952 12.4407 20.3884 13.3004 20.7445C14.16 21.1005 14.8947 21.7035 15.4117 22.4772C15.9286 23.2508 16.2045 24.1604 16.2045 25.0909C16.2031 26.3382 15.707 27.534 14.8251 28.416C13.9431 29.2979 12.7473 29.794 11.5 29.7954Z" fill="url(#paint1_linear)"/>
<path d="M2.09084 20.3864C2.37954 20.3864 2.61357 20.1523 2.61357 19.8636C2.61357 19.5749 2.37954 19.3409 2.09084 19.3409C1.80215 19.3409 1.56812 19.5749 1.56812 19.8636C1.56812 20.1523 1.80215 20.3864 2.09084 20.3864Z" fill="url(#paint2_linear)"/>
<path d="M11.5 27.0512C12.5826 27.0512 13.4602 26.1735 13.4602 25.0909C13.4602 24.0083 12.5826 23.1307 11.5 23.1307C10.4174 23.1307 9.53979 24.0083 9.53979 25.0909C9.53979 26.1735 10.4174 27.0512 11.5 27.0512Z" fill="url(#paint3_linear)"/>
<path d="M2.09084 30.841C2.37954 30.841 2.61357 30.6069 2.61357 30.3183C2.61357 30.0296 2.37954 29.7955 2.09084 29.7955C1.80215 29.7955 1.56812 30.0296 1.56812 30.3183C1.56812 30.6069 1.80215 30.841 2.09084 30.841Z" fill="url(#paint4_linear)"/>
<path d="M20.909 20.3864C21.1977 20.3864 21.4317 20.1523 21.4317 19.8636C21.4317 19.5749 21.1977 19.3409 20.909 19.3409C20.6203 19.3409 20.3862 19.5749 20.3862 19.8636C20.3862 20.1523 20.6203 20.3864 20.909 20.3864Z" fill="url(#paint5_linear)"/>
<path d="M20.909 30.841C21.1977 30.841 21.4317 30.6069 21.4317 30.3183C21.4317 30.0296 21.1977 29.7955 20.909 29.7955C20.6203 29.7955 20.3862 30.0296 20.3862 30.3183C20.3862 30.6069 20.6203 30.841 20.909 30.841Z" fill="url(#paint6_linear)"/>
<defs>
<linearGradient id="paint0_linear" x1="-3.41733" y1="34.7733" x2="29.5588" y2="1.79714" gradientUnits="userSpaceOnUse">
<stop stop-color="#AE0D2A"/>
<stop offset="0.614226" stop-color="#E8A473"/>
<stop offset="1" stop-color="#E80613"/>
</linearGradient>
<linearGradient id="paint1_linear" x1="784.967" y1="6692.13" x2="6588.78" y2="888.316" gradientUnits="userSpaceOnUse">
<stop stop-color="#AE0D2A"/>
<stop offset="0.703125" stop-color="#E8A473"/>
<stop offset="1" stop-color="#E80613"/>
</linearGradient>
<linearGradient id="paint2_linear" x1="-44.6849" y1="508.867" x2="482.934" y2="-18.7523" gradientUnits="userSpaceOnUse">
<stop stop-color="#AE0D2A"/>
<stop offset="0.723958" stop-color="#E8A473"/>
<stop offset="1" stop-color="#E80613"/>
</linearGradient>
<linearGradient id="paint3_linear" x1="-163.909" y1="1858.85" x2="1814.66" y2="-119.719" gradientUnits="userSpaceOnUse">
<stop stop-color="#AE0D2A"/>
<stop offset="0.723958" stop-color="#E8A473"/>
<stop offset="1" stop-color="#E80613"/>
</linearGradient>
<linearGradient id="paint4_linear" x1="38.9515" y1="602.958" x2="566.57" y2="75.3387" gradientUnits="userSpaceOnUse">
<stop stop-color="#AE0D2A"/>
<stop offset="0.703125" stop-color="#E89673"/>
<stop offset="1" stop-color="#E80613"/>
</linearGradient>
<linearGradient id="paint5_linear" x1="124.679" y1="659.412" x2="652.298" y2="131.793" gradientUnits="userSpaceOnUse">
<stop stop-color="#AE0D2A"/>
<stop offset="0.609375" stop-color="#E8A473"/>
<stop offset="1" stop-color="#E80613"/>
</linearGradient>
<linearGradient id="paint6_linear" x1="208.315" y1="753.503" x2="735.934" y2="225.884" gradientUnits="userSpaceOnUse">
<stop stop-color="#AE0D2A"/>
<stop offset="0.677083" stop-color="#E8A473"/>
<stop offset="1" stop-color="#E80613"/>
</linearGradient>
</defs>
</svg>
