<svg width="32" height="24" viewBox="0 0 32 24" fill="none" xmlns="http://www.w3.org/2000/svg">
<path d="M31.3333 8.66669C31.7018 8.66669 32 8.3685 32 8V2.66669C32 1.19594 30.8041 0 29.3333 0H2.66669C1.19594 0 0 1.19594 0 2.66669V8C0 8.3685 0.298187 8.66669 0.666687 8.66669C2.50456 8.66669 4 10.1621 4 12C4 13.8379 2.50456 15.3333 0.666687 15.3333C0.298187 15.3333 0 15.6315 0 16V21.3333C0 22.8041 1.19594 24 2.66669 24H29.3334C30.8041 24 32 22.8041 32 21.3333V16C32 15.6315 31.7018 15.3333 31.3333 15.3333C29.4954 15.3333 28 13.8379 28 12C28 10.1621 29.4954 8.66669 31.3333 8.66669ZM9.33331 20.6667C9.33331 21.0352 9.03512 21.3334 8.66663 21.3334C8.29813 21.3334 7.99994 21.0352 7.99994 20.6667V19.3334C7.99994 18.9649 8.29813 18.6667 8.66663 18.6667C9.03512 18.6667 9.33331 18.9649 9.33331 19.3334V20.6667ZM9.33331 15.3333C9.33331 15.7018 9.03512 16 8.66663 16C8.29813 16 7.99994 15.7018 7.99994 15.3333V14C7.99994 13.6315 8.29813 13.3333 8.66663 13.3333C9.03512 13.3333 9.33331 13.6315 9.33331 14V15.3333ZM9.33331 10C9.33331 10.3685 9.03512 10.6667 8.66663 10.6667C8.29813 10.6667 7.99994 10.3685 7.99994 10V8.66669C7.99994 8.29819 8.29813 8 8.66663 8C9.03512 8 9.33331 8.29819 9.33331 8.66669V10ZM9.33331 4.66669C9.33331 5.03519 9.03512 5.33337 8.66663 5.33337C8.29813 5.33337 7.99994 5.03519 7.99994 4.66669V3.16669C7.99994 2.79819 8.29813 2.5 8.66663 2.5C9.03512 2.5 9.33331 2.79819 9.33331 3.16669V4.66669ZM23.3333 17.3333H14C13.6315 17.3333 13.3333 17.0351 13.3333 16.6666C13.3333 16.2981 13.6315 15.9999 14 15.9999H23.3333C23.7018 15.9999 24 16.2981 24 16.6666C24 17.0352 23.7018 17.3333 23.3333 17.3333ZM23.3333 12.6667H14C13.6315 12.6667 13.3333 12.3685 13.3333 12C13.3333 11.6315 13.6315 11.3333 14 11.3333H23.3333C23.7018 11.3333 24 11.6315 24 12C24 12.3685 23.7018 12.6667 23.3333 12.6667ZM23.3333 8H14C13.6315 8 13.3333 7.70181 13.3333 7.33331C13.3333 6.96481 13.6315 6.66663 14 6.66663H23.3333C23.7018 6.66663 24 6.96481 24 7.33331C24 7.70181 23.7018 8 23.3333 8Z" fill="#055F9D"/>
</svg>
