<svg width="19" height="19.35" viewBox="0 0 23 23" fill="none" xmlns="http://www.w3.org/2000/svg">
<path d="M22.2997 11.9572C22.3044 11.9525 22.3044 11.9525 22.3091 11.9478C22.3231 11.9291 22.3371 11.9151 22.3465 11.8964C22.3511 11.8917 22.3511 11.8871 22.3558 11.8824C22.3652 11.8637 22.3792 11.845 22.3885 11.8263C22.3885 11.8216 22.3932 11.8169 22.3932 11.8169C22.4025 11.7983 22.4119 11.7796 22.4212 11.7562C22.4212 11.7515 22.4212 11.7515 22.4259 11.7468C22.4353 11.7281 22.4399 11.7048 22.4493 11.6814C22.4493 11.6767 22.4493 11.672 22.454 11.672C22.4586 11.6487 22.468 11.63 22.468 11.6066C22.468 11.5973 22.468 11.5926 22.4727 11.5832C22.4773 11.5645 22.4773 11.5458 22.482 11.5271C22.4867 11.4991 22.4867 11.4757 22.4867 11.4477C22.4867 11.4196 22.4867 11.3963 22.482 11.3682C22.482 11.3495 22.4773 11.3308 22.4727 11.3121C22.4727 11.3028 22.4727 11.2981 22.468 11.2887C22.4633 11.2654 22.4586 11.2467 22.454 11.2233C22.454 11.2186 22.454 11.2139 22.4493 11.2139C22.4446 11.1906 22.4353 11.1719 22.4259 11.1485C22.4259 11.1438 22.4259 11.1438 22.4212 11.1392C22.4119 11.1205 22.4025 11.0971 22.3932 11.0784C22.3932 11.0737 22.3885 11.069 22.3885 11.069C22.3792 11.0503 22.3698 11.0316 22.3558 11.0129C22.3511 11.0083 22.3511 11.0036 22.3465 10.9989C22.3324 10.9802 22.3231 10.9615 22.3091 10.9475C22.3044 10.9428 22.3044 10.9428 22.2997 10.9382C22.281 10.9195 22.267 10.8961 22.2436 10.8774L17.6206 6.25906C17.3074 5.94587 16.7979 5.94587 16.4847 6.25906C16.1715 6.57225 16.1715 7.08176 16.4847 7.39494L19.7381 10.6483H6.804C6.35993 10.6483 6 11.0083 6 11.4477C6 11.8917 6.35993 12.2517 6.804 12.2517H19.7428L16.5128 15.4817C16.1996 15.7949 16.1996 16.3044 16.5128 16.6176C16.667 16.7718 16.8727 16.8513 17.0784 16.8513C17.2841 16.8513 17.4897 16.7718 17.644 16.6176L22.2389 12.0226C22.2623 11.9946 22.281 11.9759 22.2997 11.9572Z" fill="white"/>
<path d="M4.35189 1.60333H10.3351C10.7792 1.60333 11.1391 1.2434 11.1391 0.804001C11.1391 0.359931 10.7792 0 10.3351 0H4.35189C1.95391 0 0 1.95391 0 4.35189V18.5481C0 20.9461 1.95391 22.9 4.35189 22.9H10.237C10.6811 22.9 11.041 22.5401 11.041 22.1007C11.041 21.6566 10.6811 21.2967 10.237 21.2967H4.35189C2.83737 21.2967 1.60333 20.0626 1.60333 18.5481V4.35189C1.608 2.8327 2.83737 1.60333 4.35189 1.60333Z" fill="white"/>
</svg>
