<svg width="25" height="12.5" viewBox="0 0 31 16" fill="none" xmlns="http://www.w3.org/2000/svg">
<path d="M0.84373 2H26.1563C26.622 2 27 1.55195 27 1C27 0.447964 26.622 0 26.1563 0H0.84373C0.37796 0 0 0.448047 0 1C0 1.55195 0.37803 2 0.84373 2Z" fill="white"/>
<path d="M30.2188 7H6.78123C6.34996 7 6 7.44805 6 8C6 8.55195 6.35003 9 6.78123 9H30.2188C30.65 9 31 8.55195 31 8C31 7.44805 30.65 7 30.2188 7Z" fill="white"/>
<path d="M20.2027 13.4684H0.962009C0.430945 13.4684 0 13.8995 0 14.4305C0 14.9615 0.431025 15.3925 0.962009 15.3925H20.2027C20.7338 15.3925 21.1647 14.9614 21.1647 14.4305C21.1648 13.8994 20.7338 13.4684 20.2027 13.4684Z" fill="white"/>
</svg>
