<svg width="25" height="12.5" viewBox="0 0 31 16" fill="none" xmlns="http://www.w3.org/2000/svg">
<path d="M0.96201 1.92402H29.823C30.3541 1.92402 30.785 1.493 30.785 0.962011C30.785 0.430946 30.354 0 29.823 0H0.96201C0.430945 0 0 0.431026 0 0.962011C0 1.493 0.431025 1.92402 0.96201 1.92402Z" fill="white"/>
<path d="M29.823 6.73425H0.96201C0.430945 6.73425 0 7.16528 0 7.69626C0 8.22725 0.431025 8.65827 0.96201 8.65827H29.823C30.3541 8.65827 30.785 8.22725 30.785 7.69626C30.785 7.16528 30.3541 6.73425 29.823 6.73425Z" fill="white"/>
<path d="M20.2027 13.4684H0.962009C0.430945 13.4684 0 13.8995 0 14.4305C0 14.9615 0.431025 15.3925 0.962009 15.3925H20.2027C20.7338 15.3925 21.1647 14.9614 21.1647 14.4305C21.1648 13.8994 20.7338 13.4684 20.2027 13.4684Z" fill="white"/>
</svg>