<svg width="18" height="18" viewBox="0 0 18 18" fill="none" xmlns="http://www.w3.org/2000/svg">
<path d="M1.62004 3.53958L1.91289 4.36305C1.92544 4.39831 1.95026 4.42626 1.98159 4.44035L2.71319 4.76998C2.81655 4.81656 2.81655 4.98123 2.71319 5.02778L1.98159 5.3574C1.95026 5.3715 1.92544 5.39945 1.91289 5.43471L1.62004 6.25818C1.57866 6.37451 1.43234 6.37451 1.391 6.25818L1.09815 5.43471C1.08559 5.39945 1.06077 5.3715 1.02945 5.3574L0.297849 5.02778C0.194489 4.9812 0.194489 4.81653 0.297849 4.76998L1.02945 4.44035C1.06077 4.42626 1.08559 4.39831 1.09815 4.36305L1.391 3.53958C1.43234 3.42325 1.57866 3.42325 1.62004 3.53958V3.53958Z" fill="white"/>
<path d="M5.25596 0.0915259L5.47319 0.702331C5.48251 0.728487 5.5009 0.749194 5.52414 0.759671L6.06684 1.00418C6.14352 1.03874 6.14352 1.16087 6.06684 1.19543L5.52414 1.43994C5.5009 1.45042 5.48248 1.47113 5.47319 1.49728L5.25596 2.10812C5.22527 2.19443 5.11674 2.19443 5.08605 2.10812L4.86882 1.49728C4.85954 1.47113 4.84112 1.45042 4.81788 1.43994L4.27517 1.19543C4.1985 1.16087 4.1985 1.03874 4.27517 1.00418L4.81788 0.759671C4.84112 0.749194 4.85954 0.728487 4.86882 0.702331L5.08605 0.0915259C5.11674 0.00521728 5.22527 0.00521728 5.25596 0.0915259V0.0915259Z" fill="white"/>
<path d="M17.7706 3.01918C17.8525 2.67555 17.6404 2.33057 17.2967 2.24864C16.9531 2.1667 16.6081 2.37885 16.5262 2.72247C16.4443 3.0661 16.6564 3.41109 17 3.49302C17.3437 3.57495 17.6886 3.36281 17.7706 3.01918Z" fill="white"/>
<path d="M2.16169 2.06101C2.31403 2.06101 2.43753 1.93751 2.43753 1.78517C2.43753 1.63283 2.31403 1.50934 2.16169 1.50934C2.00935 1.50934 1.88586 1.63283 1.88586 1.78517C1.88586 1.93751 2.00935 2.06101 2.16169 2.06101Z" fill="white"/>
<path d="M15.7731 5.4383C15.4452 4.41033 14.8644 3.51923 14.0898 2.8327L14.4569 2.19686C14.6525 1.85802 14.7045 1.46332 14.6032 1.08539C14.5019 0.707465 14.2596 0.391621 13.9207 0.196012C13.2213 -0.207828 12.3237 0.0327109 11.9199 0.732145L11.4708 1.50998C10.4232 1.28638 9.32475 1.36042 8.2747 1.738C6.76636 2.28039 5.53842 3.38412 4.81701 4.84595C4.81413 4.85182 4.80763 4.86536 4.79775 4.88593C4.51291 5.47996 3.9329 6.64405 3.24852 7.76638C2.65554 8.7388 2.20206 9.32071 1.86624 9.6683C1.31246 9.51822 0.710306 9.77535 0.446986 10.309L0.433099 10.3371C0.28822 10.6307 0.266353 10.9631 0.371505 11.2731C0.476658 11.5831 0.696208 11.8336 0.989763 11.9785L6.53872 14.7168C6.38516 15.0222 6.29836 15.3667 6.29836 15.7312C6.29836 16.9822 7.31613 18 8.56713 18C9.46221 18 10.2374 17.4787 10.6063 16.724L12.0772 17.4499C12.2511 17.5357 12.4357 17.5763 12.6176 17.5763C13.0697 17.5763 13.5053 17.3253 13.7185 16.8933L13.7325 16.8649C13.9774 16.3688 13.8541 15.7854 13.4689 15.4261C13.5393 14.913 13.7352 14.1222 14.1908 12.9089C14.7495 11.4208 15.4034 10.0863 15.4099 10.0732C16.1312 8.61143 16.2602 6.96535 15.7731 5.4383V5.4383ZM12.5374 1.08859C12.6378 0.914711 12.7999 0.790328 12.9938 0.738367C13.0586 0.721 13.1243 0.712422 13.1896 0.712422C13.3199 0.712422 13.4484 0.746594 13.5642 0.813461C13.7381 0.913867 13.8625 1.07594 13.9145 1.26989C13.9664 1.46385 13.9397 1.66642 13.8394 1.8403L13.5219 2.39011C13.299 2.23789 13.0643 2.10011 12.8182 1.97868C12.609 1.8755 12.3956 1.78602 12.1788 1.70963L12.5374 1.08859ZM8.56713 17.287C7.70928 17.287 7.01136 16.5891 7.01136 15.7312C7.01136 15.4799 7.07148 15.2425 7.17782 15.0322L9.96656 16.4084C9.71449 16.9278 9.18229 17.287 8.56713 17.287V17.287ZM13.0931 16.5493L13.0791 16.5777C12.9541 16.8311 12.6462 16.9356 12.3927 16.8105L1.30529 11.3391C1.18252 11.2785 1.0907 11.1738 1.04675 11.0441C1.00277 10.9145 1.01191 10.7755 1.07259 10.6526L1.08648 10.6244C1.21156 10.371 1.51943 10.2665 1.77287 10.3916L12.8603 15.863C13.1137 15.9881 13.2181 16.296 13.0931 16.5493ZM14.7704 9.75767C14.7638 9.77103 14.0946 11.1368 13.5234 12.6579C13.1333 13.6967 12.9155 14.4656 12.8081 15.0421L2.5494 9.97972C2.91102 9.57138 3.34161 8.98335 3.85728 8.13763C4.55795 6.98866 5.15008 5.8003 5.44072 5.19421C5.44877 5.17741 5.45408 5.16633 5.45647 5.16148C6.09572 3.86608 7.18229 2.88852 8.51598 2.40896C9.84506 1.93101 11.2609 2.00526 12.5026 2.61807C13.7443 3.2308 14.6645 4.30933 15.0938 5.65493C15.5245 7.00525 15.4097 8.4623 14.7704 9.75767V9.75767Z" fill="white"/>
<path d="M7.14626 5.20665C7.06747 5.20665 6.98823 5.18071 6.92224 5.1273C6.76917 5.00345 6.74544 4.77898 6.86926 4.62591C7.20321 4.21307 7.5977 3.85672 8.04173 3.56679C8.20654 3.4591 8.42753 3.50551 8.53515 3.67039C8.64279 3.83528 8.59642 4.05616 8.43154 4.16381C8.04985 4.41303 7.71073 4.71939 7.42361 5.07432C7.35319 5.16141 7.25018 5.20665 7.14626 5.20665V5.20665Z" fill="white"/>
<path d="M9.32254 3.69998C9.1726 3.69998 9.0331 3.60464 8.98384 3.45442C8.92249 3.26732 9.02448 3.06594 9.21158 3.00459C9.34704 2.96019 9.48633 2.92124 9.62559 2.88879C9.81733 2.84407 10.009 2.96329 10.0537 3.15506C10.0984 3.34681 9.97915 3.53848 9.78741 3.5832C9.66844 3.61093 9.5494 3.64419 9.4337 3.68212C9.39679 3.69422 9.35935 3.69998 9.32254 3.69998V3.69998Z" fill="white"/>
</svg>
