<svg width="31" height="31" viewBox="0 0 31 31" fill="none" xmlns="http://www.w3.org/2000/svg">
<path d="M1.69958 30.981C0.760951 30.981 0 30.2201 0 29.2814V9.58893H10.6904L13.6521 11.9125H25.6046V15.3116C17.0882 22.6536 11.5723 30.981 1.69958 30.981Z" fill="#3D9AE2"/>
<path d="M7.47104 15.3116L3.58882 29.6371C3.37389 30.4302 2.65407 30.9809 1.83228 30.9809H15.1771L19.2035 22.238L19.4235 15.3116H7.47104Z" fill="#96C8EF"/>
<path d="M18.9912 15.3115L14.7449 30.9809H25.3051C26.1268 30.9809 26.8466 30.4302 27.0616 29.637L30.9438 15.3115H18.9912Z" fill="#69B1E9"/>
<path d="M15.4991 28.1979H9.21069L9.70794 26.378H15.9963L17.0629 27.2879L15.4991 28.1979Z" fill="#69B1E9"/>
<path d="M21.7875 28.1979H15.499L15.9923 26.378H22.2847L21.7875 28.1979Z" fill="#3D9AE2"/>
<path d="M29.8836 4.33925L28.4727 5.43512C27.991 2.36001 25.3239 0 22.1157 0C18.5675 0 15.6809 2.88663 15.6809 6.43478H17.5008C17.5008 3.89011 19.571 1.81988 22.1157 1.81988C24.2529 1.81988 26.0549 3.28045 26.5774 5.25568L25.3975 4.33925L24.2812 5.77641L27.6406 8.38587L31 5.77641L29.8836 4.33925Z" fill="#77CA95"/>
</svg>
