<svg width="18" height="18" viewBox="0 0 18 18" fill="none" xmlns="http://www.w3.org/2000/svg">
<path d="M16.6678 7.21867C16.4047 7.14118 16.2053 6.94719 16.1205 6.6864C16.0358 6.42565 16.0831 6.15147 16.2504 5.93416C16.765 5.2656 16.7771 4.39249 16.2811 3.70997C15.7852 3.02738 14.9511 2.76912 14.1563 3.05188C13.898 3.14381 13.6225 3.10409 13.4007 2.94289C13.1789 2.78177 13.056 2.53213 13.0636 2.25802C13.0869 1.41465 12.5835 0.701192 11.7811 0.440473C10.9787 0.179895 10.1521 0.461074 9.67532 1.15706C9.52035 1.38322 9.27422 1.51298 9 1.51298C8.72578 1.51298 8.47965 1.38326 8.32468 1.15706C7.84786 0.461004 7.02123 0.179719 6.21886 0.440473C5.41645 0.701192 4.91302 1.41465 4.93639 2.25802C4.94399 2.53209 4.82108 2.78174 4.59928 2.94289C4.37745 3.10405 4.10203 3.14381 3.84374 3.05191C3.04879 2.76905 2.21477 3.02738 1.71886 3.70997C1.22291 4.39253 1.235 5.2656 1.74962 5.9342C1.91689 6.15143 1.96421 6.42565 1.87945 6.6864C1.79473 6.94716 1.59529 7.14122 1.33225 7.21867C0.522949 7.4571 0 8.15629 0 9C0 9.84372 0.522949 10.5429 1.33225 10.7813C1.59529 10.8588 1.79469 11.0528 1.87945 11.3136C1.96418 11.5744 1.91686 11.8485 1.74962 12.0658C1.23504 12.7344 1.22295 13.6075 1.71886 14.29C2.21477 14.9726 3.04886 15.2308 3.84374 14.9481C4.10203 14.8562 4.37748 14.8959 4.59928 15.0571C4.82108 15.2182 4.94399 15.4679 4.93639 15.742C4.91305 16.5853 5.41649 17.2988 6.21886 17.5595C6.41767 17.6241 6.61788 17.6554 6.81395 17.6554C7.40929 17.6554 7.96598 17.3665 8.32472 16.8429C8.47969 16.6167 8.72582 16.487 9.00004 16.487C9.27425 16.487 9.52038 16.6167 9.67535 16.8429C10.1521 17.5389 10.9788 17.8202 11.7812 17.5595C12.5836 17.2988 13.087 16.5853 13.0636 15.7419C13.056 15.4679 13.179 15.2182 13.4008 15.0571C13.6226 14.8959 13.898 14.8561 14.1563 14.9481C14.9512 15.2308 15.7852 14.9726 16.2812 14.29C16.7771 13.6074 16.765 12.7344 16.2504 12.0658C16.0831 11.8485 16.0358 11.5743 16.1206 11.3136C16.2053 11.0528 16.4047 10.8587 16.6678 10.7813C17.4771 10.5429 18 9.84372 18 9C18 8.15629 17.4771 7.4571 16.6678 7.21867ZM16.3743 9.78521C15.7864 9.95843 15.3223 10.4098 15.1329 10.9927C14.9436 11.5756 15.0537 12.2136 15.4275 12.6993C15.7028 13.057 15.615 13.4403 15.441 13.6797C15.2671 13.9191 14.9297 14.1211 14.5044 13.9697C13.9269 13.7643 13.2861 13.8567 12.7903 14.217C12.2945 14.5773 12.0086 15.1581 12.0256 15.7707C12.038 16.2219 11.7417 16.4805 11.4602 16.5719C11.1788 16.6634 10.7871 16.6284 10.532 16.256C10.1856 15.7505 9.61288 15.4486 9 15.4486C8.38712 15.4486 7.81439 15.7505 7.468 16.256C7.21287 16.6284 6.82119 16.6633 6.53977 16.5719C6.2583 16.4805 5.96197 16.222 5.97442 15.7707C5.99136 15.1581 5.70551 14.5772 5.20966 14.217C4.88788 13.9832 4.5051 13.8622 4.11817 13.8622C3.90888 13.8622 3.69833 13.8976 3.49562 13.9698C3.0703 14.1211 2.73294 13.9191 2.55899 13.6797C2.385 13.4402 2.29721 13.057 2.57256 12.6993C2.94638 12.2136 3.05648 11.5756 2.8671 10.9927C2.67771 10.4098 2.21365 9.95843 1.62573 9.78521C1.19275 9.65767 1.03845 9.29595 1.03845 9C1.03845 8.70405 1.19271 8.34233 1.62573 8.21479C2.21365 8.04157 2.67768 7.59016 2.86706 7.00727C3.05645 6.42438 2.94634 5.78644 2.57252 5.30072C2.29718 4.94304 2.385 4.55973 2.55895 4.32032C2.73291 4.08087 3.0703 3.87889 3.49562 4.03028C4.07306 4.2357 4.71386 4.14331 5.20966 3.78299C5.70551 3.42274 5.9914 2.84189 5.97442 2.22926C5.96197 1.77806 6.25827 1.51952 6.53977 1.42808C6.82123 1.33654 7.2129 1.37159 7.468 1.74396C7.81436 2.24961 8.38709 2.5515 8.99996 2.5515C9.61284 2.5515 10.1856 2.24961 10.532 1.74403C10.7871 1.37166 11.1788 1.33671 11.4602 1.42815C11.7417 1.51959 12.038 1.77806 12.0255 2.22933C12.0086 2.842 12.2945 3.42285 12.7903 3.78306C13.2861 4.14327 13.9268 4.2358 14.5044 4.03031C14.9296 3.87897 15.267 4.08094 15.441 4.32039C15.615 4.55984 15.7028 4.94311 15.4274 5.30079C15.0536 5.78647 14.9435 6.42445 15.1329 7.00734C15.3223 7.59023 15.7864 8.04164 16.3743 8.21486C16.8072 8.34233 16.9615 8.70405 16.9615 9C16.9616 9.29595 16.8073 9.65767 16.3743 9.78521Z" fill="white"/>
<path d="M12.7994 6.1827C12.5817 5.99605 12.2539 6.02129 12.0673 6.23902L8.23001 10.7158L5.85 8.93075C5.62061 8.75873 5.29517 8.80525 5.12308 9.0346C4.95099 9.264 4.99754 9.58944 5.22693 9.76153L7.99615 11.8385C8.08932 11.9083 8.19872 11.9423 8.30743 11.9423C8.45417 11.9423 8.59961 11.8803 8.70191 11.761L12.8558 6.91486C13.0424 6.69707 13.0172 6.3693 12.7994 6.1827Z" fill="white"/>
</svg>
